<svg width="54" height="54" viewBox="0 0 54 54" fill="none" xmlns="http://www.w3.org/2000/svg">
<path d="M22 2.88675C25.094 1.10042 28.906 1.10042 32 2.88675L45.3827 10.6132C48.4767 12.3996 50.3827 15.7008 50.3827 19.2735V34.7265C50.3827 38.2992 48.4767 41.6004 45.3827 43.3868L32 51.1132C28.906 52.8996 25.094 52.8996 22 51.1132L8.61731 43.3868C5.5233 41.6004 3.61731 38.2992 3.61731 34.7265V19.2735C3.61731 15.7008 5.5233 12.3996 8.61731 10.6132L22 2.88675Z" fill="#0F98A0"/>
<g clip-path="url(#clip0_191_1682)">
<path d="M26.8602 26.5609C28.4484 26.5609 29.8237 25.9912 30.9475 24.8673C32.0712 23.7436 32.6408 22.3687 32.6408 20.7803C32.6408 19.1923 32.0712 17.8173 30.9473 16.6932C29.8234 15.5696 28.4482 15 26.8602 15C25.2718 15 23.8968 15.5696 22.7731 16.6934C21.6494 17.8171 21.0796 19.1922 21.0796 20.7803C21.0796 22.3687 21.6494 23.7438 22.7733 24.8675C23.8972 25.9911 25.2723 26.5609 26.8602 26.5609ZM36.9747 33.4548C36.9423 32.9871 36.8768 32.4769 36.7802 31.9383C36.6828 31.3955 36.5574 30.8825 36.4073 30.4136C36.2522 29.9289 36.0413 29.4503 35.7805 28.9916C35.5099 28.5155 35.192 28.1009 34.8353 27.7598C34.4623 27.403 34.0057 27.1161 33.4776 26.9067C32.9514 26.6986 32.3681 26.5931 31.7443 26.5931C31.4993 26.5931 31.2624 26.6936 30.8048 26.9916C30.4796 27.2034 30.1533 27.4137 29.8261 27.6225C29.5117 27.8228 29.0858 28.0105 28.5598 28.1804C28.0465 28.3465 27.5254 28.4308 27.0111 28.4308C26.4967 28.4308 25.9758 28.3465 25.462 28.1804C24.9365 28.0107 24.5106 27.823 24.1966 27.6227C23.8323 27.39 23.5028 27.1776 23.217 26.9913C22.7599 26.6934 22.5228 26.5929 22.2778 26.5929C21.6538 26.5929 21.0708 26.6985 20.5447 26.907C20.017 27.1159 19.5602 27.4028 19.1868 27.76C18.8303 28.1013 18.5123 28.5157 18.242 28.9916C17.9815 29.4502 17.7705 29.9287 17.6152 30.4138C17.4652 30.8827 17.3398 31.3955 17.2424 31.9383C17.1459 32.4762 17.0804 32.9866 17.048 33.4553C17.0157 33.927 16.9997 34.3997 17 34.8725C17 36.1254 17.3983 37.1395 18.1836 37.8875C18.9592 38.6257 19.9855 39.0001 21.2336 39.0001H32.7897C34.0377 39.0001 35.0636 38.6258 35.8395 37.8876C36.625 37.1401 37.0232 36.1257 37.0232 34.8723C37.023 34.3888 37.0068 33.9118 36.9747 33.4548Z" fill="white"/>
</g>
<defs>
<clipPath id="clip0_191_1682">
<rect width="21" height="24" fill="white" transform="translate(17 15)"/>
</clipPath>
</defs>
</svg>
