<svg width="54" height="54" viewBox="0 0 54 54" fill="none" xmlns="http://www.w3.org/2000/svg">
<path d="M22 2.88675C25.094 1.10042 28.906 1.10042 32 2.88675L45.3827 10.6132C48.4767 12.3996 50.3827 15.7008 50.3827 19.2735V34.7265C50.3827 38.2992 48.4767 41.6004 45.3827 43.3868L32 51.1132C28.906 52.8996 25.094 52.8996 22 51.1132L8.61731 43.3868C5.5233 41.6004 3.61731 38.2992 3.61731 34.7265V19.2735C3.61731 15.7008 5.5233 12.3996 8.61731 10.6132L22 2.88675Z" fill="#F2A939"/>
<path d="M37.0447 32.52C36.3892 31.9703 32.5448 29.5358 31.9058 29.6475C31.6058 29.7008 31.3763 29.9565 30.762 30.6893C30.4779 31.0499 30.166 31.3877 29.829 31.6995C29.2116 31.5504 28.614 31.3288 28.0485 31.0395C25.831 29.9599 24.0395 28.1679 22.9605 25.95C22.6712 25.3846 22.4496 24.7869 22.3005 24.1695C22.6123 23.8325 22.9501 23.5206 23.3108 23.2365C24.0428 22.6223 24.2993 22.3942 24.3525 22.0927C24.4643 21.4522 22.0275 17.6093 21.48 16.9538C21.2505 16.6823 21.042 16.5 20.775 16.5C20.001 16.5 16.5 20.829 16.5 21.39C16.5 21.4358 16.575 25.9425 22.2668 31.7333C28.0575 37.425 32.5642 37.5 32.61 37.5C33.171 37.5 37.5 33.999 37.5 33.225C37.5 32.958 37.3177 32.7495 37.0447 32.52ZM32.25 26.25H33.75C33.7482 24.6592 33.1155 23.1342 31.9907 22.0093C30.8658 20.8845 29.3408 20.2518 27.75 20.25V21.75C28.9431 21.7512 30.087 22.2257 30.9307 23.0693C31.7743 23.913 32.2488 25.0569 32.25 26.25Z" fill="white"/>
<path d="M36 26.25H37.5C37.497 23.6651 36.4688 21.1868 34.641 19.359C32.8132 17.5312 30.3349 16.503 27.75 16.5V18C29.9372 18.0026 32.0342 18.8726 33.5808 20.4192C35.1274 21.9658 35.9974 24.0628 36 26.25Z" fill="white"/>
</svg>
