<svg width="54" height="54" viewBox="0 0 54 54" fill="none" xmlns="http://www.w3.org/2000/svg">
<path d="M22 2.88675C25.094 1.10042 28.906 1.10042 32 2.88675L45.3827 10.6132C48.4767 12.3996 50.3827 15.7008 50.3827 19.2735V34.7265C50.3827 38.2992 48.4767 41.6004 45.3827 43.3868L32 51.1132C28.906 52.8996 25.094 52.8996 22 51.1132L8.61731 43.3868C5.5233 41.6004 3.61731 38.2992 3.61731 34.7265V19.2735C3.61731 15.7008 5.5233 12.3996 8.61731 10.6132L22 2.88675Z" fill="#3FCC35"/>
<path d="M25.4361 25.4347C28.3176 25.4347 30.6535 23.0989 30.6535 20.2174C30.6535 17.3359 28.3176 15 25.4361 15C22.5546 15 20.2188 17.3359 20.2188 20.2174C20.2188 23.0989 22.5546 25.4347 25.4361 25.4347Z" fill="white"/>
<path d="M31.4896 28.8317C30.3854 29.3113 29.6096 30.4222 29.6096 31.6954C27.888 31.6954 26.4792 33.1042 26.4792 34.8259C26.4792 35.1912 26.5419 35.5458 26.6669 35.8694H20.2183C18.5794 35.8694 17.1633 34.6062 17.0928 32.9688C16.9645 29.9846 19.349 27.5215 22.3053 27.5215H28.5662C29.6704 27.5215 30.7006 27.8681 31.5462 28.4659C31.6817 28.5617 31.6418 28.7656 31.4896 28.8317ZM36.914 34.8259C36.914 35.3996 36.4445 35.8694 35.8705 35.8694H33.7835V37.9563C33.7835 38.53 33.314 38.9998 32.74 38.9998C32.1661 38.9998 31.6966 38.53 31.6966 37.9563V35.8694H29.6096C29.0356 35.8694 28.5661 35.3996 28.5661 34.8259C28.5661 34.2522 29.0356 33.7824 29.6096 33.7824H31.6966V31.6954C31.6966 31.1217 32.1661 30.6519 32.74 30.6519C33.314 30.6519 33.7835 31.1217 33.7835 31.6954V33.7824H35.8705C36.4445 33.7824 36.914 34.2521 36.914 34.8259Z" fill="white"/>
</svg>
