<svg width="54" height="54" viewBox="0 0 54 54" fill="none" xmlns="http://www.w3.org/2000/svg">
<path d="M22 2.88675C25.094 1.10042 28.906 1.10042 32 2.88675L45.3827 10.6132C48.4767 12.3996 50.3827 15.7008 50.3827 19.2735V34.7265C50.3827 38.2992 48.4767 41.6004 45.3827 43.3868L32 51.1132C28.906 52.8996 25.094 52.8996 22 51.1132L8.61731 43.3868C5.5233 41.6004 3.61731 38.2992 3.61731 34.7265V19.2735C3.61731 15.7008 5.5233 12.3996 8.61731 10.6132L22 2.88675Z" fill="#E23625"/>
<path d="M27 23C29.2091 23 31 21.2091 31 19C31 16.7909 29.2091 15 27 15C24.7909 15 23 16.7909 23 19C23 21.2091 24.7909 23 27 23Z" fill="white"/>
<path d="M19.2109 36.5C21.4201 36.5 23.2109 34.7091 23.2109 32.5C23.2109 30.2909 21.4201 28.5 19.2109 28.5C17.0018 28.5 15.2109 30.2909 15.2109 32.5C15.2109 34.7091 17.0018 36.5 19.2109 36.5Z" fill="white"/>
<path d="M17.9457 27.9938C17.9825 27.9978 18.0196 27.9998 18.0567 27.9998C18.3027 27.9996 18.54 27.9087 18.7231 27.7445C18.9063 27.5803 19.0226 27.3544 19.0497 27.1098C19.1627 26.0725 19.4791 25.0676 19.9806 24.1526C20.4822 23.2375 21.1591 22.4302 21.9727 21.7768C22.1712 21.6077 22.2958 21.3676 22.3199 21.1078C22.3439 20.8481 22.2655 20.5892 22.1014 20.3864C21.9372 20.1837 21.7004 20.0531 21.4413 20.0225C21.1822 19.992 20.9215 20.0638 20.7147 20.2228C19.6976 21.0397 18.8514 22.0489 18.2245 23.1929C17.5975 24.3368 17.202 25.593 17.0607 26.8898C17.0317 27.1536 17.1087 27.418 17.2747 27.625C17.4406 27.832 17.6819 27.9647 17.9457 27.9938ZM29.6677 35.5448C27.9409 36.1483 26.0604 36.1483 24.3337 35.5448C24.0834 35.4565 23.8084 35.4712 23.569 35.5857C23.3296 35.7002 23.1455 35.9051 23.0572 36.1553C22.9688 36.4056 22.9835 36.6806 23.098 36.92C23.2125 37.1594 23.4174 37.3435 23.6677 37.4318C25.825 38.1897 28.1763 38.1897 30.3337 37.4318C30.5839 37.3435 30.7888 37.1594 30.9033 36.92C31.0178 36.6806 31.0325 36.4056 30.9441 36.1553C30.8558 35.9051 30.6717 35.7002 30.4323 35.5857C30.1929 35.4712 29.9179 35.4565 29.6677 35.5448ZM34.9517 27.1098C34.9787 27.3544 35.095 27.5803 35.2782 27.7445C35.4613 27.9087 35.6986 27.9996 35.9447 27.9998C35.9817 27.9998 36.0188 27.9978 36.0557 27.9938C36.1863 27.9795 36.3128 27.9396 36.428 27.8764C36.5432 27.8131 36.6448 27.7278 36.727 27.6253C36.8092 27.5227 36.8703 27.405 36.907 27.2788C36.9437 27.1526 36.9551 27.0204 36.9407 26.8898C36.6692 24.4445 35.5039 22.1856 33.6686 20.5468C33.4706 20.3728 33.2119 20.2841 32.9488 20.2998C32.6856 20.3156 32.4394 20.4346 32.2635 20.631C32.0877 20.8274 31.9965 21.0853 32.0098 21.3485C32.0232 21.6118 32.1399 21.8592 32.3347 22.0368C33.8029 23.3471 34.7349 25.1539 34.9517 27.1098Z" fill="white"/>
<path d="M34.791 36.5C37.0002 36.5 38.791 34.7091 38.791 32.5C38.791 30.2909 37.0002 28.5 34.791 28.5C32.5819 28.5 30.791 30.2909 30.791 32.5C30.791 34.7091 32.5819 36.5 34.791 36.5Z" fill="white"/>
</svg>
