<svg width="54" height="54" viewBox="0 0 54 54" fill="none" xmlns="http://www.w3.org/2000/svg">
<path d="M22 2.88675C25.094 1.10042 28.906 1.10042 32 2.88675L45.3827 10.6132C48.4767 12.3996 50.3827 15.7008 50.3827 19.2735V34.7265C50.3827 38.2992 48.4767 41.6004 45.3827 43.3868L32 51.1132C28.906 52.8996 25.094 52.8996 22 51.1132L8.61731 43.3868C5.5233 41.6004 3.61731 38.2992 3.61731 34.7265V19.2735C3.61731 15.7008 5.5233 12.3996 8.61731 10.6132L22 2.88675Z" fill="#0F98A0"/>
<g clip-path="url(#clip0_193_1929)">
<path d="M34.2228 29.4453C33.2779 29.4453 32.3542 29.7255 31.5686 30.2505C30.7829 30.7754 30.1706 31.5216 29.809 32.3945C29.4474 33.2675 29.3528 34.2281 29.5371 35.1549C29.7215 36.0816 30.1765 36.9329 30.8446 37.601C31.5128 38.2692 32.364 38.7242 33.2908 38.9085C34.2175 39.0929 35.1781 38.9982 36.0511 38.6366C36.9241 38.275 37.6702 37.6627 38.1952 36.877C38.7201 36.0914 39.0003 35.1677 39.0003 34.2228C39.0003 32.9557 38.497 31.7406 37.601 30.8446C36.7051 29.9487 35.4899 29.4453 34.2228 29.4453ZM36.5319 34.8791H34.2233C34.0492 34.8791 33.8823 34.8099 33.7592 34.6869C33.6362 34.5638 33.567 34.3969 33.567 34.2228V31.4436C33.567 31.2695 33.6362 31.1026 33.7592 30.9796C33.8823 30.8565 34.0492 30.7873 34.2233 30.7873C34.3973 30.7873 34.5643 30.8565 34.6873 30.9796C34.8104 31.1026 34.8795 31.2695 34.8795 31.4436V33.5666H36.5319C36.7059 33.5666 36.8728 33.6357 36.9959 33.7588C37.119 33.8818 37.1881 34.0488 37.1881 34.2228C37.1881 34.3969 37.119 34.5638 36.9959 34.6869C36.8728 34.8099 36.7059 34.8791 36.5319 34.8791Z" fill="white"/>
<path d="M36.6971 23.3832C36.3849 23.3911 36.0732 23.3963 35.7629 23.3963C34.4449 23.3959 33.1279 23.3256 31.8174 23.1858H31.8061C31.0247 23.0953 30.2593 22.7077 29.6443 22.0946C29.0293 21.4814 28.6439 20.7141 28.553 19.9332C28.5532 19.9294 28.5532 19.9257 28.553 19.9219C28.3789 18.2929 28.3125 16.6542 28.3543 15.0164C25.8912 14.9571 23.4269 15.0585 20.9771 15.3202C19.3407 15.51 17.7718 17.0794 17.5814 18.7158C17.1525 22.7307 17.1525 30.1857 17.5814 34.2005C17.7713 35.8369 19.3407 37.4063 20.9771 37.5961C23.7553 37.8935 26.5517 37.9846 29.3433 37.8685C28.752 37.0755 28.362 36.1509 28.2068 35.1739C28.0517 34.197 28.1361 33.197 28.4527 32.2599H21.9127C21.7386 32.2599 21.5717 32.1907 21.4487 32.0677C21.3256 31.9446 21.2564 31.7777 21.2564 31.6036C21.2564 31.4296 21.3256 31.2627 21.4487 31.1396C21.5717 31.0165 21.7386 30.9474 21.9127 30.9474H29.0846C29.6058 30.1344 30.3109 29.4554 31.1429 28.965H21.9127C21.7386 28.965 21.5717 28.8959 21.4487 28.7728C21.3256 28.6498 21.2564 28.4828 21.2564 28.3088C21.2564 28.1347 21.3256 27.9678 21.4487 27.8447C21.5717 27.7217 21.7386 27.6525 21.9127 27.6525H32.0846C32.2586 27.6525 32.4255 27.7217 32.5486 27.8447C32.6717 27.9678 32.7408 28.1347 32.7408 28.3088V28.3125C34.068 27.9839 35.4669 28.1076 36.7158 28.6641C36.7519 26.9208 36.7454 25.0922 36.6971 23.3832ZM28.8052 25.6707H21.9146C21.7405 25.6707 21.5736 25.6015 21.4505 25.4784C21.3275 25.3554 21.2583 25.1885 21.2583 25.0144C21.2583 24.8404 21.3275 24.6734 21.4505 24.5504C21.5736 24.4273 21.7405 24.3582 21.9146 24.3582H28.8052C28.9792 24.3582 29.1462 24.4273 29.2692 24.5504C29.3923 24.6734 29.4614 24.8404 29.4614 25.0144C29.4614 25.1885 29.3923 25.3554 29.2692 25.4784C29.1462 25.6015 28.9792 25.6707 28.8052 25.6707Z" fill="white"/>
<path d="M31.9512 21.9366C33.5128 22.1037 35.0837 22.1677 36.6537 22.1284L36.65 22.1223C34.7958 19.3231 32.4016 16.9223 29.6075 15.0605C29.567 16.6384 29.631 18.2171 29.7992 19.7865C29.9192 20.8234 30.9139 21.818 31.9512 21.9366Z" fill="white"/>
</g>
<defs>
<clipPath id="clip0_193_1929">
<rect width="24" height="24" fill="white" transform="translate(15 15)"/>
</clipPath>
</defs>
</svg>
