<svg width="54" height="54" viewBox="0 0 54 54" fill="none" xmlns="http://www.w3.org/2000/svg">
<path d="M22 2.88675C25.094 1.10042 28.906 1.10042 32 2.88675L45.3827 10.6132C48.4767 12.3996 50.3827 15.7008 50.3827 19.2735V34.7265C50.3827 38.2992 48.4767 41.6004 45.3827 43.3868L32 51.1132C28.906 52.8996 25.094 52.8996 22 51.1132L8.61731 43.3868C5.5233 41.6004 3.61731 38.2992 3.61731 34.7265V19.2735C3.61731 15.7008 5.5233 12.3996 8.61731 10.6132L22 2.88675Z" fill="#E23625"/>
<path d="M27.001 26.75C29.069 26.75 30.751 25.067 30.751 23C30.751 20.933 29.069 19.25 27.001 19.25C24.933 19.25 23.251 20.933 23.251 23C23.251 25.067 24.933 26.75 27.001 26.75ZM33.501 28.333C35.04 28.333 36.293 27.081 36.293 25.542C36.293 24.003 35.04 22.75 33.501 22.75C31.962 22.75 30.709 24.003 30.709 25.542C30.709 27.081 31.962 28.333 33.501 28.333ZM20.501 28.333C22.04 28.333 23.293 27.081 23.293 25.542C23.293 24.003 22.04 22.75 20.501 22.75C18.962 22.75 17.709 24.003 17.709 25.542C17.709 27.081 18.962 28.333 20.501 28.333Z" fill="white"/>
<path fill-rule="evenodd" clip-rule="evenodd" d="M27 27.25C25.475 27.25 24.0125 27.8558 22.9341 28.9341C21.8558 30.0125 21.25 31.475 21.25 33V34C21.25 34.414 21.586 34.75 22 34.75H32C32.1989 34.75 32.3897 34.671 32.5303 34.5303C32.671 34.3897 32.75 34.1989 32.75 34V33C32.75 31.475 32.1442 30.0125 31.0659 28.9341C29.9875 27.8558 28.525 27.25 27 27.25Z" fill="white"/>
<path d="M20.5 29.25C19.3732 29.2513 18.293 29.6995 17.4963 30.4963C16.6995 31.293 16.2513 32.3732 16.25 33.5C16.25 34.189 16.811 34.75 17.5 34.75H20.27C19.9314 34.2291 19.7508 33.6213 19.75 33C19.75 31.634 20.137 30.359 20.796 29.268C20.698 29.261 20.6 29.25 20.5 29.25ZM33.5 29.25C33.4 29.25 33.302 29.261 33.204 29.268C33.8874 30.3929 34.2492 31.6837 34.25 33C34.25 33.646 34.056 34.244 33.73 34.75H36.5C37.189 34.75 37.75 34.189 37.75 33.5C37.7487 32.3732 37.3005 31.293 36.5037 30.4963C35.707 29.6995 34.6268 29.2513 33.5 29.25Z" fill="white"/>
</svg>
