<svg width="54" height="54" viewBox="0 0 54 54" fill="none" xmlns="http://www.w3.org/2000/svg">
<path d="M22 2.88675C25.094 1.10042 28.906 1.10042 32 2.88675L45.3827 10.6132C48.4767 12.3996 50.3827 15.7008 50.3827 19.2735V34.7265C50.3827 38.2992 48.4767 41.6004 45.3827 43.3868L32 51.1132C28.906 52.8996 25.094 52.8996 22 51.1132L8.61731 43.3868C5.5233 41.6004 3.61731 38.2992 3.61731 34.7265V19.2735C3.61731 15.7008 5.5233 12.3996 8.61731 10.6132L22 2.88675Z" fill="#3FCC35"/>
<path d="M38.81 24.27C38.6805 24.0362 38.4907 23.8414 38.2602 23.7059C38.0298 23.5705 37.7673 23.4994 37.5 23.5H23.286C22.8068 23.5001 22.3405 23.6556 21.9572 23.9432C21.5739 24.2308 21.2941 24.6349 21.16 25.095L18.3465 34.74C18.1984 35.2477 17.8896 35.6937 17.4666 36.0111C17.0435 36.3284 16.5289 36.5 16 36.5H33.874C34.4029 36.5 34.9176 36.3284 35.3408 36.0111C35.764 35.6938 36.0728 35.2478 36.221 34.74L38.922 25.48C38.9847 25.281 39.0072 25.0715 38.9881 24.8638C38.9689 24.656 38.9081 24.4542 38.81 24.27Z" fill="white"/>
<path d="M17.385 34.46L20.2 24.815C20.3961 24.1482 20.8024 23.5626 21.3583 23.1455C21.9142 22.7283 22.59 22.5019 23.285 22.5H36V22C36 21.4696 35.7893 20.9609 35.4142 20.5858C35.0391 20.2107 34.5304 20 34 20H26.378C26.229 20 26.0818 19.9668 25.9472 19.9028C25.8126 19.8388 25.694 19.7456 25.6 19.63L24.617 18.4215C24.3829 18.1336 24.0876 17.9016 23.7525 17.7422C23.4174 17.5828 23.051 17.5 22.68 17.5H17C16.4696 17.5 15.9609 17.7107 15.5858 18.0858C15.2107 18.4609 15 18.9696 15 19.5V34.5C15 34.7652 15.1054 35.0196 15.2929 35.2071C15.4804 35.3946 15.7348 35.5 16 35.5C16.3121 35.4991 16.6156 35.3974 16.8652 35.21C17.1148 35.0226 17.2971 34.7595 17.385 34.46Z" fill="white"/>
</svg>
