<svg width="54" height="54" viewBox="0 0 54 54" fill="none" xmlns="http://www.w3.org/2000/svg">
<path d="M22 2.88675C25.094 1.10042 28.906 1.10042 32 2.88675L45.3827 10.6132C48.4767 12.3996 50.3827 15.7008 50.3827 19.2735V34.7265C50.3827 38.2992 48.4767 41.6004 45.3827 43.3868L32 51.1132C28.906 52.8996 25.094 52.8996 22 51.1132L8.61731 43.3868C5.5233 41.6004 3.61731 38.2992 3.61731 34.7265V19.2735C3.61731 15.7008 5.5233 12.3996 8.61731 10.6132L22 2.88675Z" fill="#F2A939"/>
<path d="M20.5001 22.125C20.5001 21.0001 20.8337 19.9005 21.4586 18.9652C22.0836 18.0299 22.9718 17.3009 24.0111 16.8704C25.0503 16.44 26.1939 16.3273 27.2972 16.5468C28.4004 16.7662 29.4139 17.3079 30.2093 18.1033C31.0047 18.8987 31.5464 19.9122 31.7658 21.0154C31.9853 22.1187 31.8726 23.2623 31.4422 24.3015C31.0117 25.3408 30.2827 26.229 29.3474 26.854C28.4121 27.4789 27.3125 27.8125 26.1876 27.8125C24.6801 27.8096 23.2351 27.2095 22.1691 26.1435C21.1031 25.0775 20.503 23.6325 20.5001 22.125ZM37.7468 32.4167C37.7489 33.1103 37.6087 33.797 37.3347 34.4343C37.0608 35.0716 36.659 35.6459 36.1543 36.1217H36.1001C35.1564 37.0113 33.9087 37.5073 32.6118 37.5083C31.6164 37.5121 30.6415 37.2258 29.8062 36.6845C28.9708 36.1432 28.3112 35.3704 27.9079 34.4604C27.5046 33.5504 27.3751 32.5426 27.5352 31.5602C27.6952 30.5778 28.138 29.6633 28.8093 28.9283C28.8093 28.9283 28.8093 28.8525 28.8851 28.82C29.3601 28.3209 29.9314 27.9233 30.5646 27.6514C31.1977 27.3796 31.8794 27.239 32.5684 27.2383C33.2497 27.234 33.925 27.365 34.5552 27.6237C35.1854 27.8824 35.758 28.2637 36.2397 28.7454C36.7214 29.2271 37.1027 29.7997 37.3614 30.4299C37.6201 31.0601 37.7511 31.7354 37.7468 32.4167ZM34.3234 35.4717L29.5459 30.705C29.2383 31.2378 29.077 31.8425 29.0785 32.4577C29.08 33.073 29.2441 33.6769 29.5544 34.2082C29.8646 34.7395 30.3098 35.1793 30.8448 35.483C31.3799 35.7867 31.9857 35.9435 32.6009 35.9375C33.206 35.9362 33.8001 35.7755 34.3234 35.4717ZM36.1218 32.4167C36.1219 31.7785 35.9486 31.1524 35.6204 30.6051C35.2922 30.0579 34.8214 29.6101 34.2584 29.3097C33.6954 29.0093 33.0614 28.8675 32.4241 28.8996C31.7867 28.9316 31.1701 29.1363 30.6401 29.4917L35.5259 34.3775C35.9164 33.7983 36.124 33.1152 36.1218 32.4167ZM27.0543 28.6467C26.9808 28.5536 26.8869 28.4788 26.7798 28.4281C26.6727 28.3774 26.5553 28.3521 26.4368 28.3542H23.6093C21.9891 28.3608 20.4146 28.8922 19.1217 29.8687C17.8289 30.8452 16.8871 32.2142 16.4376 33.7708C16.3142 34.2142 16.2948 34.6801 16.381 35.1322C16.4671 35.5843 16.6565 36.0105 16.9343 36.3774C17.2121 36.7443 17.5709 37.0422 17.9827 37.2477C18.3945 37.4533 18.8482 37.561 19.3084 37.5625H27.1301C27.2437 37.5634 27.3562 37.5407 27.4606 37.496C27.565 37.4512 27.6591 37.3853 27.7368 37.3025C27.7766 37.2509 27.8128 37.1966 27.8451 37.14C26.7537 36.0328 26.0788 34.5823 25.9347 33.0344C25.7905 31.4865 26.1861 29.9363 27.0543 28.6467Z" fill="white"/>
</svg>
